<svg xmlns="http://www.w3.org/2000/svg" viewBox="0 0 480 300" fill="none"><g stroke="#303030" stroke-width="1.8" stroke-linecap="round" stroke-linejoin="round"><path d="M55 170L260 95L430 169L221 252Z M55 170V184L221 267L430 182V169M221 252V267M80 196V263M399 195V262M221 267V286"/><path d="M223 117V84Q222 73 233 71V54H255V71Q267 73 267 84V117M223 87H267M223 116Q245 129 267 116M233 54Q244 47 255 54"/></g><g stroke="#7660a6" stroke-width="1.8" stroke-linecap="round" stroke-linejoin="round"><ellipse cx="245" cy="137" rx="53" ry="22"/><path d="M88 166L155 142L190 158L123 183Z M103 165L147 150M120 171L163 157M296 173L356 150L386 165L326 189Z M311 173L351 158M185 218L254 192L287 207L219 233Z"/></g></svg>